<mxfile host="app.diagrams.net" modified="2023-05-11T20:37:16.250Z" agent="Mozilla/5.0 (Windows NT 10.0; Win64; x64; rv:109.0) Gecko/20100101 Firefox/112.0" etag="A1-tFooc3l2lCPNq065k" version="21.2.9" type="device">
  <diagram id="EY7_AXZXK5GjfGtb0Al6" name="Stránka-1">
    <mxGraphModel dx="1434" dy="792" grid="1" gridSize="10" guides="1" tooltips="1" connect="1" arrows="1" fold="1" page="1" pageScale="1" pageWidth="827" pageHeight="1169" math="0" shadow="0">
      <root>
        <mxCell id="0" />
        <mxCell id="1" parent="0" />
        <mxCell id="0kob6FYTsgCvbCwhJBki-30" style="edgeStyle=orthogonalEdgeStyle;rounded=0;orthogonalLoop=1;jettySize=auto;html=1;entryX=0.5;entryY=0;entryDx=0;entryDy=0;fontFamily=Times New Roman;" parent="1" source="0kob6FYTsgCvbCwhJBki-2" target="0kob6FYTsgCvbCwhJBki-3" edge="1">
          <mxGeometry relative="1" as="geometry">
            <mxPoint x="474" y="240" as="targetPoint" />
          </mxGeometry>
        </mxCell>
        <mxCell id="YHXKCsQl0nkpWPKdwtoT-13" style="edgeStyle=orthogonalEdgeStyle;rounded=0;orthogonalLoop=1;jettySize=auto;html=1;entryX=0;entryY=0.5;entryDx=0;entryDy=0;fontFamily=Times New Roman;" parent="1" source="0kob6FYTsgCvbCwhJBki-2" target="eQNtMIHr7CIbFBIAa5ZM-10" edge="1">
          <mxGeometry relative="1" as="geometry" />
        </mxCell>
        <mxCell id="0kob6FYTsgCvbCwhJBki-2" value="&lt;div&gt;Baterie&lt;/div&gt;&lt;div&gt;LiFePO4&lt;br&gt;&lt;/div&gt;" style="rounded=1;whiteSpace=wrap;html=1;fontStyle=1;fillColor=#f5f5f5;fontColor=#333333;strokeColor=#666666;fontFamily=Times New Roman;" parent="1" vertex="1">
          <mxGeometry x="414" y="230" width="120" height="60" as="geometry" />
        </mxCell>
        <mxCell id="YHXKCsQl0nkpWPKdwtoT-15" style="edgeStyle=orthogonalEdgeStyle;rounded=0;orthogonalLoop=1;jettySize=auto;html=1;entryX=0;entryY=0.5;entryDx=0;entryDy=0;fontFamily=Times New Roman;" parent="1" source="0kob6FYTsgCvbCwhJBki-3" target="0kob6FYTsgCvbCwhJBki-7" edge="1">
          <mxGeometry relative="1" as="geometry" />
        </mxCell>
        <mxCell id="YHXKCsQl0nkpWPKdwtoT-16" style="edgeStyle=orthogonalEdgeStyle;rounded=0;orthogonalLoop=1;jettySize=auto;html=1;entryX=0;entryY=0.5;entryDx=0;entryDy=0;fontFamily=Times New Roman;" parent="1" source="0kob6FYTsgCvbCwhJBki-3" target="0kob6FYTsgCvbCwhJBki-12" edge="1">
          <mxGeometry relative="1" as="geometry">
            <Array as="points">
              <mxPoint x="510" y="420" />
            </Array>
          </mxGeometry>
        </mxCell>
        <mxCell id="YHXKCsQl0nkpWPKdwtoT-17" style="edgeStyle=orthogonalEdgeStyle;rounded=0;orthogonalLoop=1;jettySize=auto;html=1;fontFamily=Times New Roman;" parent="1" source="0kob6FYTsgCvbCwhJBki-3" target="eQNtMIHr7CIbFBIAa5ZM-8" edge="1">
          <mxGeometry relative="1" as="geometry" />
        </mxCell>
        <mxCell id="YHXKCsQl0nkpWPKdwtoT-18" style="edgeStyle=orthogonalEdgeStyle;rounded=0;orthogonalLoop=1;jettySize=auto;html=1;entryX=1;entryY=0.5;entryDx=0;entryDy=0;fontFamily=Times New Roman;startArrow=classic;startFill=1;" parent="1" source="0kob6FYTsgCvbCwhJBki-3" target="0kob6FYTsgCvbCwhJBki-4" edge="1">
          <mxGeometry relative="1" as="geometry">
            <Array as="points">
              <mxPoint x="440" y="400" />
              <mxPoint x="400" y="400" />
              <mxPoint x="400" y="440" />
            </Array>
          </mxGeometry>
        </mxCell>
        <mxCell id="0kob6FYTsgCvbCwhJBki-3" value="&lt;div&gt;Mikrokontrolér ESP32-C3&lt;br&gt;&lt;/div&gt;&lt;div&gt;s anténou&lt;br&gt;&lt;/div&gt;" style="rounded=1;whiteSpace=wrap;html=1;fontStyle=1;fillColor=#fff2cc;strokeColor=#d6b656;fontFamily=Times New Roman;" parent="1" vertex="1">
          <mxGeometry x="414" y="320" width="120" height="60" as="geometry" />
        </mxCell>
        <mxCell id="YHXKCsQl0nkpWPKdwtoT-6" style="edgeStyle=orthogonalEdgeStyle;rounded=0;orthogonalLoop=1;jettySize=auto;html=1;entryX=1;entryY=0.5;entryDx=0;entryDy=0;fontFamily=Times New Roman;startArrow=classic;startFill=1;" parent="1" source="0kob6FYTsgCvbCwhJBki-4" target="eQNtMIHr7CIbFBIAa5ZM-7" edge="1">
          <mxGeometry relative="1" as="geometry" />
        </mxCell>
        <mxCell id="0kob6FYTsgCvbCwhJBki-4" value="LoRa modul E22-900T22D" style="rounded=1;whiteSpace=wrap;html=1;fontStyle=1;fillColor=#dae8fc;strokeColor=#6c8ebf;fontFamily=Times New Roman;" parent="1" vertex="1">
          <mxGeometry x="230" y="410" width="120" height="60" as="geometry" />
        </mxCell>
        <mxCell id="YHXKCsQl0nkpWPKdwtoT-5" style="edgeStyle=orthogonalEdgeStyle;rounded=0;orthogonalLoop=1;jettySize=auto;html=1;entryX=0;entryY=0.5;entryDx=0;entryDy=0;fontFamily=Times New Roman;" parent="1" source="0kob6FYTsgCvbCwhJBki-6" target="eQNtMIHr7CIbFBIAa5ZM-9" edge="1">
          <mxGeometry relative="1" as="geometry" />
        </mxCell>
        <mxCell id="0kob6FYTsgCvbCwhJBki-6" value="&lt;div&gt;Kapacitní tlačítka&lt;/div&gt;" style="rounded=1;whiteSpace=wrap;html=1;fontStyle=1;fillColor=#f8cecc;strokeColor=#b85450;fontFamily=Times New Roman;" parent="1" vertex="1">
          <mxGeometry x="80" y="330" width="120" height="60" as="geometry" />
        </mxCell>
        <mxCell id="0kob6FYTsgCvbCwhJBki-7" value="&lt;div&gt;Inteligentní LED &lt;br&gt;&lt;/div&gt;&lt;div&gt;WS2812C&lt;br&gt;&lt;/div&gt;" style="rounded=1;whiteSpace=wrap;html=1;fontStyle=1;fillColor=#f8cecc;strokeColor=#b85450;fontFamily=Times New Roman;" parent="1" vertex="1">
          <mxGeometry x="580" y="320" width="120" height="60" as="geometry" />
        </mxCell>
        <mxCell id="0kob6FYTsgCvbCwhJBki-12" value="&lt;div&gt;Piezo &lt;br&gt;&lt;/div&gt;&lt;div&gt;BTM1205XH7.5&lt;/div&gt;" style="rounded=1;whiteSpace=wrap;html=1;fontStyle=1;fillColor=#f8cecc;strokeColor=#b85450;fontFamily=Times New Roman;" parent="1" vertex="1">
          <mxGeometry x="580" y="390" width="120" height="60" as="geometry" />
        </mxCell>
        <mxCell id="YHXKCsQl0nkpWPKdwtoT-2" style="edgeStyle=orthogonalEdgeStyle;rounded=0;orthogonalLoop=1;jettySize=auto;html=1;entryX=0;entryY=0.75;entryDx=0;entryDy=0;fontFamily=Times New Roman;" parent="1" source="0kob6FYTsgCvbCwhJBki-18" target="eQNtMIHr7CIbFBIAa5ZM-6" edge="1">
          <mxGeometry relative="1" as="geometry">
            <Array as="points">
              <mxPoint x="360" y="240" />
              <mxPoint x="360" y="195" />
            </Array>
          </mxGeometry>
        </mxCell>
        <mxCell id="YHXKCsQl0nkpWPKdwtoT-21" style="edgeStyle=orthogonalEdgeStyle;rounded=0;orthogonalLoop=1;jettySize=auto;html=1;entryX=0.25;entryY=0;entryDx=0;entryDy=0;fontFamily=Times New Roman;" parent="1" source="0kob6FYTsgCvbCwhJBki-18" target="0kob6FYTsgCvbCwhJBki-3" edge="1">
          <mxGeometry relative="1" as="geometry">
            <Array as="points">
              <mxPoint x="360" y="260" />
              <mxPoint x="360" y="300" />
              <mxPoint x="444" y="300" />
            </Array>
          </mxGeometry>
        </mxCell>
        <mxCell id="0kob6FYTsgCvbCwhJBki-18" value="&lt;div&gt;Programovací &lt;br&gt;&lt;/div&gt;&lt;div&gt;a nabíjecí konektor&lt;/div&gt;&lt;div&gt;USB-C&lt;br&gt;&lt;/div&gt;" style="rounded=1;whiteSpace=wrap;html=1;fontStyle=1;fillColor=#e1d5e7;strokeColor=#9673a6;fontFamily=Times New Roman;" parent="1" vertex="1">
          <mxGeometry x="210" y="220" width="120" height="60" as="geometry" />
        </mxCell>
        <mxCell id="YHXKCsQl0nkpWPKdwtoT-3" style="edgeStyle=orthogonalEdgeStyle;rounded=0;orthogonalLoop=1;jettySize=auto;html=1;entryX=0.5;entryY=0;entryDx=0;entryDy=0;fontFamily=Times New Roman;" parent="1" source="eQNtMIHr7CIbFBIAa5ZM-6" target="0kob6FYTsgCvbCwhJBki-2" edge="1">
          <mxGeometry relative="1" as="geometry" />
        </mxCell>
        <mxCell id="eQNtMIHr7CIbFBIAa5ZM-6" value="&lt;div&gt;Nabíjecí obvod&lt;/div&gt;&lt;div&gt;CN3058E&lt;/div&gt;" style="rounded=1;whiteSpace=wrap;html=1;fontStyle=1;fillColor=#ffe6cc;strokeColor=#d79b00;fontFamily=Times New Roman;" parent="1" vertex="1">
          <mxGeometry x="414" y="150" width="120" height="60" as="geometry" />
        </mxCell>
        <mxCell id="eQNtMIHr7CIbFBIAa5ZM-7" value="anténa" style="rounded=1;whiteSpace=wrap;html=1;fontStyle=1;fillColor=#f5f5f5;fontColor=#333333;strokeColor=#666666;fontFamily=Times New Roman;" parent="1" vertex="1">
          <mxGeometry x="147" y="420" width="53" height="40" as="geometry" />
        </mxCell>
        <mxCell id="eQNtMIHr7CIbFBIAa5ZM-8" value="Vibrační motor LCM1020A2945F" style="rounded=1;whiteSpace=wrap;html=1;fontStyle=1;fillColor=#f8cecc;strokeColor=#b85450;fontFamily=Times New Roman;" parent="1" vertex="1">
          <mxGeometry x="414" y="440" width="120" height="60" as="geometry" />
        </mxCell>
        <mxCell id="YHXKCsQl0nkpWPKdwtoT-4" style="edgeStyle=orthogonalEdgeStyle;rounded=0;orthogonalLoop=1;jettySize=auto;html=1;entryX=0.006;entryY=0.656;entryDx=0;entryDy=0;entryPerimeter=0;fontFamily=Times New Roman;" parent="1" source="eQNtMIHr7CIbFBIAa5ZM-9" target="0kob6FYTsgCvbCwhJBki-3" edge="1">
          <mxGeometry relative="1" as="geometry">
            <mxPoint x="410" y="360" as="targetPoint" />
          </mxGeometry>
        </mxCell>
        <mxCell id="eQNtMIHr7CIbFBIAa5ZM-9" value="&lt;div&gt;Převodník pro &lt;br&gt;&lt;/div&gt;&lt;div&gt;kapacitní tlačítka&lt;/div&gt;&lt;div&gt;AT42QT1070&lt;br&gt;&lt;/div&gt;" style="rounded=1;whiteSpace=wrap;html=1;fontStyle=1;fillColor=#ffe6cc;strokeColor=#d79b00;fontFamily=Times New Roman;" parent="1" vertex="1">
          <mxGeometry x="230" y="330" width="120" height="60" as="geometry" />
        </mxCell>
        <mxCell id="YHXKCsQl0nkpWPKdwtoT-14" style="edgeStyle=orthogonalEdgeStyle;rounded=0;orthogonalLoop=1;jettySize=auto;html=1;entryX=0.5;entryY=0;entryDx=0;entryDy=0;fontFamily=Times New Roman;" parent="1" source="eQNtMIHr7CIbFBIAa5ZM-10" target="0kob6FYTsgCvbCwhJBki-7" edge="1">
          <mxGeometry relative="1" as="geometry" />
        </mxCell>
        <mxCell id="eQNtMIHr7CIbFBIAa5ZM-10" value="&lt;div&gt;Zvyšovač napětí &lt;br&gt;&lt;/div&gt;&lt;div&gt;LT1930&lt;br&gt;&lt;/div&gt;" style="rounded=1;whiteSpace=wrap;html=1;fontStyle=1;fillColor=#ffe6cc;strokeColor=#d79b00;fontFamily=Times New Roman;" parent="1" vertex="1">
          <mxGeometry x="580" y="230" width="120" height="60" as="geometry" />
        </mxCell>
        <mxCell id="YHXKCsQl0nkpWPKdwtoT-1" style="edgeStyle=orthogonalEdgeStyle;rounded=0;orthogonalLoop=1;jettySize=auto;html=1;entryX=0;entryY=0.5;entryDx=0;entryDy=0;fontFamily=Times New Roman;" parent="1" source="eQNtMIHr7CIbFBIAa5ZM-11" target="eQNtMIHr7CIbFBIAa5ZM-6" edge="1">
          <mxGeometry relative="1" as="geometry" />
        </mxCell>
        <mxCell id="eQNtMIHr7CIbFBIAa5ZM-11" value="&lt;div&gt;Nabíjecí konektor&lt;/div&gt;&lt;div&gt;USB-A&lt;br&gt;&lt;/div&gt;" style="rounded=1;whiteSpace=wrap;html=1;fontStyle=1;fillColor=#e1d5e7;strokeColor=#9673a6;fontFamily=Times New Roman;" parent="1" vertex="1">
          <mxGeometry x="210" y="150" width="120" height="60" as="geometry" />
        </mxCell>
        <mxCell id="YHXKCsQl0nkpWPKdwtoT-19" value="&lt;b&gt;UART&lt;/b&gt;" style="text;html=1;strokeColor=none;fillColor=none;align=center;verticalAlign=middle;whiteSpace=wrap;rounded=0;fontFamily=Times New Roman;" parent="1" vertex="1">
          <mxGeometry x="350" y="400" width="60" height="30" as="geometry" />
        </mxCell>
        <mxCell id="YHXKCsQl0nkpWPKdwtoT-20" value="&lt;b&gt;I&lt;sup&gt;2&lt;/sup&gt;C&lt;/b&gt;" style="text;html=1;strokeColor=none;fillColor=none;align=center;verticalAlign=middle;whiteSpace=wrap;rounded=0;fontFamily=Times New Roman;" parent="1" vertex="1">
          <mxGeometry x="354" y="330" width="60" height="30" as="geometry" />
        </mxCell>
        <mxCell id="YHXKCsQl0nkpWPKdwtoT-26" value="&lt;b&gt;USB&lt;/b&gt;" style="text;html=1;strokeColor=none;fillColor=none;align=center;verticalAlign=middle;whiteSpace=wrap;rounded=0;fontFamily=Times New Roman;" parent="1" vertex="1">
          <mxGeometry x="354" y="270" width="60" height="30" as="geometry" />
        </mxCell>
      </root>
    </mxGraphModel>
  </diagram>
</mxfile>
